<?xml version="1.0" encoding="UTF-8"?>
<svg height="600" width="800" xmlns="http://www.w3.org/2000/svg" xmlns:xlink="http://www.w3.org/1999/xlink">
    <g id="Notes" font-family="'LucidaGrande', 'Lucida Grande', sans-serif" font-size="13">
        <rect fill="white" height="600.0" width="800.0" x="0.0" y="0.0" />
        <g font-size="13">
            <text x="18.0" y="176.0">Small</text>
            <text x="18.0" y="376.0">Medium</text>
            <text x="18.0" y="576.0">Large</text>
        </g>
        <g font-size="9">
            <text x="250.0" y="30.0">Ultralight</text>
            <text x="450.0" y="30.0">Regular</text>
            <text x="650.0" y="30.0">Black</text>
            <text id="template-version" fill="#505050" text-anchor="end" x="785.0" y="575.0">Template v.3.0</text>
            <a href="https://wangchujiang.com/#/app">
                <text fill="#505050" text-anchor="end" x="785.0" y="590.0">https://wangchujiang.com/#/app</text>
            </a>
        </g>
    </g>
    <g id="Guides" stroke="rgb(39, 170, 225)" stroke-width="0.5">
        <path id="Capline-S" d="M18,76 l800,0" />
        <path id="H-reference" d="M85,145.755 L87.685,145.755 L113.369,79.287 L114.052,79.287 L114.052,76 L112.148,76 L85,145.755 Z M95.693,121.536 L130.996,121.536 L130.263,119.313 L96.474,119.313 L95.693,121.536 Z M139.15,145.755 L141.787,145.755 L114.638,76 L113.466,76 L113.466,79.287 L139.15,145.755 Z" stroke="none" />
        <path id="Baseline-S" d="M18,146 l800,0" />
        <path id="left-margin-Ultralight-S" d="M216.118,56 l0,110" />
        <path id="right-margin-Ultralight-S" d="M313.882,56 l0,110" />
        <path id="left-margin-Regular-S" d="M416.118,56 l0,110" />
        <path id="right-margin-Regular-S" d="M513.882,56 l0,110" />
        <path id="left-margin-Black-S" d="M616.118,56 l0,110" />
        <path id="right-margin-Black-S" d="M713.882,56 l0,110" />
        <path id="Capline-M" d="M18,276 l800,0" />
        <path id="Baseline-M" d="M18,346 l800,0" />
        <path id="Capline-L" d="M18,476 l800,0" />
        <path id="Baseline-L" d="M18,546 l800,0" />
    </g>
    <g id="Symbols">
        <g id="Ultralight-S">
            <path d="M230.006,114.888 L249.447,114.888 L245.969,112.739 L261.522,143.845 C263.357,147.515 268.888,146.209 268.888,142.106 L268.888,79.894 L261.522,81.633 L277.075,112.739 C277.734,114.056 279.08,114.888 280.553,114.888 L299.994,114.888 C302.142,114.888 303.882,113.147 303.882,111 C303.882,108.853 302.142,107.112 299.994,107.112 L280.553,107.112 L284.031,109.261 L268.478,78.155 C266.643,74.485 261.112,75.791 261.112,79.894 L261.112,142.106 L268.478,140.367 L252.925,109.261 C252.266,107.944 250.92,107.112 249.447,107.112 L230.006,107.112 C227.858,107.112 226.118,108.853 226.118,111 C226.118,113.147 227.858,114.888 230.006,114.888 Z" />
        </g>
        <g id="Regular-S">
            <path d="M430.006,114.888 L449.447,114.888 L445.969,112.739 L461.522,143.845 C463.357,147.515 468.888,146.209 468.888,142.106 L468.888,79.894 L461.522,81.633 L477.075,112.739 C477.734,114.056 479.08,114.888 480.553,114.888 L499.994,114.888 C502.142,114.888 503.882,113.147 503.882,111 C503.882,108.853 502.142,107.112 499.994,107.112 L480.553,107.112 L484.031,109.261 L468.478,78.155 C466.643,74.485 461.112,75.791 461.112,79.894 L461.112,142.106 L468.478,140.367 L452.925,109.261 C452.266,107.944 450.92,107.112 449.447,107.112 L430.006,107.112 C427.858,107.112 426.118,108.853 426.118,111 C426.118,113.147 427.858,114.888 430.006,114.888 Z" />
        </g>
        <g id="Black-S">
            <path d="M630.006,114.888 L649.447,114.888 L645.969,112.739 L661.522,143.845 C663.357,147.515 668.888,146.209 668.888,142.106 L668.888,79.894 L661.522,81.633 L677.075,112.739 C677.734,114.056 679.08,114.888 680.553,114.888 L699.994,114.888 C702.142,114.888 703.882,113.147 703.882,111 C703.882,108.853 702.142,107.112 699.994,107.112 L680.553,107.112 L684.031,109.261 L668.478,78.155 C666.643,74.485 661.112,75.791 661.112,79.894 L661.112,142.106 L668.478,140.367 L652.925,109.261 C652.266,107.944 650.92,107.112 649.447,107.112 L630.006,107.112 C627.858,107.112 626.118,108.853 626.118,111 C626.118,113.147 627.858,114.888 630.006,114.888 Z" />
        </g>
    </g>
</svg>